<svg xmlns="http://www.w3.org/2000/svg" width="1200" height="760" viewBox="0 0 1200 760" role="img" aria-labelledby="title desc">
  <title id="title">Resenha — proposta de identidade V2</title>
  <desc id="desc">Prancha com assinatura, simbolo e aplicacoes claras e escuras.</desc>
  <rect width="1200" height="760" rx="36" fill="#EEEDE9"/>
  <text x="70" y="78" fill="#777770" font-family="Avenir Next, sans-serif" font-size="18" font-weight="600" letter-spacing="2">RESENHA / IDENTIDADE 02</text>

  <rect x="54" y="112" width="1092" height="280" rx="28" fill="#FFFFFF"/>
  <g transform="translate(110 156) scale(.92)">
    <g transform="translate(18 10)" fill="none" stroke="#101114" stroke-linecap="round">
      <path d="M50 35 C24 44 17 62 17 80 C17 98 24 116 50 125" stroke-width="10"/>
      <path d="M68 49 C49 57 44 68 44 80 C44 92 49 103 68 111" stroke-width="11"/>
      <path d="M110 35 C136 44 143 62 143 80 C143 98 136 116 110 125" stroke-width="10"/>
      <path d="M92 49 C111 57 116 68 116 80 C116 92 111 103 92 111" stroke-width="11"/>
    </g>
    <g transform="translate(18 10)" fill="#101114">
      <rect x="75" y="44" width="10" height="72" rx="5"/><circle cx="80" cy="31" r="5"/><circle cx="80" cy="129" r="5"/>
    </g>
    <text x="205" y="116" fill="#101114" font-family="Avenir Next, Avenir, sans-serif" font-size="82" font-weight="700" letter-spacing="-3.8">resenha</text>
    <circle cx="510" cy="109" r="5" fill="#101114"/>
  </g>
  <text x="110" y="340" fill="#8A8A84" font-family="Avenir Next, sans-serif" font-size="16">duas vozes · uma conversa · zero atrito</text>

  <rect x="54" y="420" width="536" height="286" rx="28" fill="#101114"/>
  <g transform="translate(113 474) scale(1.02)" fill="none" stroke="#F5F4EF" stroke-linecap="round">
    <path d="M50 35 C24 44 17 62 17 80 C17 98 24 116 50 125" stroke-width="10"/>
    <path d="M68 49 C49 57 44 68 44 80 C44 92 49 103 68 111" stroke-width="11"/>
    <path d="M110 35 C136 44 143 62 143 80 C143 98 136 116 110 125" stroke-width="10"/>
    <path d="M92 49 C111 57 116 68 116 80 C116 92 111 103 92 111" stroke-width="11"/>
  </g>
  <g transform="translate(113 474) scale(1.02)" fill="#F5F4EF"><rect x="75" y="44" width="10" height="72" rx="5"/><circle cx="80" cy="31" r="5"/><circle cx="80" cy="129" r="5"/></g>
  <text x="300" y="598" fill="#F5F4EF" font-family="Avenir Next, sans-serif" font-size="48" font-weight="700" letter-spacing="-2.2">resenha</text>
  <circle cx="480" cy="591" r="4" fill="#F5F4EF"/>

  <rect x="618" y="420" width="528" height="286" rx="28" fill="#D9D8D3"/>
  <rect x="675" y="474" width="176" height="176" rx="42" fill="#101114"/>
  <g transform="translate(683 482) scale(.95)" fill="none" stroke="#F5F4EF" stroke-linecap="round">
    <path d="M50 35 C24 44 17 62 17 80 C17 98 24 116 50 125" stroke-width="10"/>
    <path d="M68 49 C49 57 44 68 44 80 C44 92 49 103 68 111" stroke-width="11"/>
    <path d="M110 35 C136 44 143 62 143 80 C143 98 136 116 110 125" stroke-width="10"/>
    <path d="M92 49 C111 57 116 68 116 80 C116 92 111 103 92 111" stroke-width="11"/>
  </g>
  <g transform="translate(683 482) scale(.95)" fill="#F5F4EF"><rect x="75" y="44" width="10" height="72" rx="5"/><circle cx="80" cy="31" r="5"/><circle cx="80" cy="129" r="5"/></g>
  <text x="887" y="545" fill="#101114" font-family="Avenir Next, sans-serif" font-size="17" font-weight="700">APP ICON</text>
  <text x="887" y="578" fill="#73736E" font-family="Avenir Next, sans-serif" font-size="15">voz local para macOS</text>
  <rect x="887" y="614" width="184" height="38" rx="19" fill="#FFFFFF"/>
  <circle cx="911" cy="633" r="5" fill="#EF4444"/>
  <text x="926" y="639" fill="#101114" font-family="Avenir Next, sans-serif" font-size="14" font-weight="600">Listening 00:09</text>
</svg>
